<?xml version="1.0" encoding="utf-8"?>
<!-- Svg Vector Icons : http://www.onlinewebfonts.com/icon -->
<!DOCTYPE svg PUBLIC "-//W3C//DTD SVG 1.1//EN" "http://www.w3.org/Graphics/SVG/1.1/DTD/svg11.dtd">
<svg version="1.1" xmlns="http://www.w3.org/2000/svg" xmlns:xlink="http://www.w3.org/1999/xlink" x="0px" y="0px" viewBox="0 0 1000 1000" enable-background="new 0 0 1000 1000" xml:space="preserve">
<metadata> Svg Vector Icons : http://www.onlinewebfonts.com/icon </metadata>
<g><g transform="translate(0.000000,511.000000) scale(0.100000,-0.100000)"><path d="M4629.8,5000.7c-32-4-154.1-18-270.2-30c-498.3-52-956.6-208.1-1280.8-434.3c-1098.7-764.5-1118.7-2421.5-56-4666.9c454.3-960.6,1170.7-2039.3,1805.1-2715.7c154.1-166.1,184.1-166.1,344.2-2c856.5,882.6,1825.1,2519.6,2269.4,3838.4c112.1,332.2,200.1,668.4,262.2,1000.6c54,296.2,74,882.6,38,1146.7c-150.1,1106.7-892.6,1723.1-2239.4,1855.2C5312.3,5010.7,4769.9,5016.7,4629.8,5000.7z M5434.3,3755.9c210.1-78.1,350.2-172.1,512.3-344.2c224.1-238.1,334.2-520.3,334.2-860.5c0-366.2-120.1-660.4-370.2-910.6c-246.2-244.2-554.4-374.2-900.6-376.2c-224.1-2-356.2,28-560.4,126.1c-266.2,128.1-470.3,328.2-598.4,588.4c-358.2,726.5,42,1599,832.5,1813.2C4904,3852,5214.2,3838,5434.3,3755.9z"/><path d="M4569.8-3414.6c-648.4-30-1268.8-190.1-1541-394.2c-128.1-96.1-200.1-232.2-180.1-340.2c20-106.1,184.1-260.2,376.2-352.2c818.5-388.2,2549.6-384.2,3346.1,8c340.2,168.1,450.3,376.2,302.2,570.4c-188.1,246.1-852.5,462.3-1535,500.3C4950-3400.6,4862-3400.6,4569.8-3414.6z"/></g></g>
</svg>