<?xml version="1.0" standalone="no"?>
<!DOCTYPE svg PUBLIC "-//W3C//DTD SVG 20010904//EN"
 "http://www.w3.org/TR/2001/REC-SVG-20010904/DTD/svg10.dtd">
<svg version="1.0" xmlns="http://www.w3.org/2000/svg"
 width="1280.000000pt" height="1096.000000pt" viewBox="0 0 1280.000000 1096.000000"
 preserveAspectRatio="xMidYMid meet">
<metadata>
Created by potrace 1.15, written by Peter Selinger 2001-2017
</metadata>
<g transform="translate(0.000000,1096.000000) scale(0.100000,-0.100000)"
fill="#000000" stroke="none">
<path d="M7373 10949 c-94 -14 -237 -52 -463 -125 -392 -126 -518 -190 -702
-356 -55 -49 -94 -97 -155 -194 -76 -118 -89 -134 -164 -189 -169 -123 -342
-322 -446 -513 -189 -344 -224 -770 -97 -1175 34 -108 100 -255 151 -339 l41
-67 -96 -32 c-388 -128 -797 -358 -1672 -942 -430 -287 -725 -522 -997 -795
-275 -276 -466 -530 -643 -856 -48 -88 -145 -267 -215 -396 -70 -129 -138
-246 -151 -260 -56 -60 -303 -539 -429 -830 -131 -303 -182 -426 -204 -490
l-23 -66 -92 -47 c-50 -26 -118 -67 -151 -92 -33 -25 -63 -45 -67 -45 -8 0
-133 -188 -246 -370 -310 -499 -457 -845 -529 -1240 -21 -118 -24 -410 -5
-520 42 -237 136 -409 316 -576 200 -186 458 -318 794 -405 62 -16 126 -29
142 -29 15 0 102 29 193 65 319 125 605 208 1027 299 820 176 1674 263 2925
296 1212 32 2307 36 2965 10 1029 -40 1326 -51 1705 -65 237 -9 572 -22 745
-30 178 -8 538 -15 825 -15 317 -1 561 -6 645 -13 74 -7 156 -9 182 -6 252 37
357 345 303 890 -49 491 -217 1170 -407 1639 -65 160 -161 353 -201 403 -57
70 -201 151 -368 206 -36 12 -36 12 -68 134 -96 363 -363 1078 -536 1432 -105
215 -186 344 -353 566 -307 408 -494 627 -671 784 -141 126 -166 145 -356 272
-429 286 -890 528 -1430 753 -128 53 -192 78 -363 141 -23 9 -23 10 23 67 317
389 441 900 333 1367 -39 168 -116 354 -204 493 -19 29 -34 54 -34 56 0 2 35
6 77 10 86 7 303 47 303 56 0 3 -84 48 -186 100 -102 52 -187 98 -190 102 -2
3 104 33 236 64 l240 58 0 42 c0 38 -3 43 -27 48 -60 11 -115 16 -288 26 -99
5 -235 17 -302 27 l-123 17 -132 -27 c-72 -14 -133 -25 -134 -24 -1 1 115 58
257 126 143 68 286 144 319 168 33 25 60 46 60 47 0 1 -37 0 -83 -2 -57 -3
-98 1 -136 12 -116 34 -268 20 -562 -55 -86 -21 -220 -50 -299 -64 -78 -14
-148 -29 -154 -33 -13 -8 -306 -20 -306 -12 0 9 283 176 525 310 121 67 226
127 232 134 18 16 -4 86 -26 85 -9 -1 -44 -5 -78 -10z"/>
</g>
</svg>
